<svg width="150" height="150" viewBox="0 0 150 150" fill="none" xmlns="http://www.w3.org/2000/svg">
<circle cx="75" cy="75" r="75" fill="#1A1D3F"/>
<path d="M17.8236 73.3636C17.7639 72.8598 17.522 72.4688 17.0977 72.1903C16.6735 71.9119 16.1531 71.7727 15.5367 71.7727C15.0859 71.7727 14.6915 71.8456 14.3534 71.9915C14.0187 72.1373 13.7568 72.3378 13.5679 72.593C13.3823 72.8482 13.2895 73.1383 13.2895 73.4631C13.2895 73.7348 13.3541 73.9685 13.4834 74.1641C13.616 74.3563 13.785 74.517 13.9905 74.6463C14.196 74.7723 14.4114 74.8767 14.6368 74.9595C14.8622 75.0391 15.0693 75.1037 15.2583 75.1534L16.2923 75.4318C16.5575 75.5014 16.8525 75.5975 17.1773 75.7202C17.5054 75.8428 17.8186 76.0102 18.1169 76.2223C18.4185 76.4311 18.6671 76.6996 18.8627 77.0277C19.0582 77.3558 19.156 77.7585 19.156 78.2358C19.156 78.786 19.0118 79.2831 18.7235 79.7273C18.4384 80.1714 18.0208 80.5244 17.4706 80.7862C16.9237 81.0481 16.2592 81.179 15.477 81.179C14.7478 81.179 14.1164 81.0613 13.5828 80.826C13.0525 80.5907 12.6349 80.2625 12.33 79.8416C12.0284 79.4207 11.8577 78.9318 11.8179 78.375H13.0906C13.1238 78.7595 13.253 79.0777 13.4784 79.3295C13.7071 79.5781 13.9955 79.7637 14.3435 79.8864C14.6948 80.0057 15.0727 80.0653 15.477 80.0653C15.9477 80.0653 16.3702 79.9891 16.7448 79.8366C17.1193 79.6809 17.4159 79.4654 17.6347 79.1903C17.8534 78.9119 17.9628 78.5871 17.9628 78.2159C17.9628 77.8778 17.8683 77.6027 17.6794 77.3906C17.4905 77.1785 17.2419 77.0062 16.9337 76.8736C16.6254 76.741 16.2923 76.625 15.9344 76.5256L14.6816 76.1676C13.8861 75.9389 13.2564 75.6125 12.7923 75.1882C12.3283 74.764 12.0963 74.2088 12.0963 73.5227C12.0963 72.9527 12.2504 72.4555 12.5587 72.0312C12.8702 71.6037 13.2878 71.2723 13.8115 71.0369C14.3385 70.7983 14.9268 70.679 15.5764 70.679C16.2327 70.679 16.816 70.7966 17.3264 71.032C17.8369 71.264 18.2412 71.5821 18.5395 71.9865C18.8411 72.3909 19.0002 72.8499 19.0168 73.3636H17.8236ZM22.1974 76.4062V81H21.0241V73.3636H22.1576V74.5568H22.257C22.436 74.169 22.7078 73.8575 23.0724 73.6222C23.4369 73.3835 23.9076 73.2642 24.4843 73.2642C25.0013 73.2642 25.4537 73.3703 25.8415 73.5824C26.2293 73.7912 26.5309 74.1094 26.7464 74.5369C26.9618 74.9612 27.0695 75.4981 27.0695 76.1477V81H25.8962V76.2273C25.8962 75.6274 25.7404 75.16 25.4289 74.8253C25.1173 74.4872 24.6898 74.3182 24.1462 74.3182C23.7717 74.3182 23.4369 74.3994 23.142 74.5618C22.8503 74.7242 22.6199 74.9612 22.4509 75.2727C22.2819 75.5843 22.1974 75.9621 22.1974 76.4062ZM32.3158 81.1591C31.6264 81.1591 31.0215 80.995 30.5012 80.6669C29.9841 80.3388 29.5798 79.8797 29.2881 79.2898C28.9997 78.6998 28.8556 78.0104 28.8556 77.2216C28.8556 76.4261 28.9997 75.7318 29.2881 75.1385C29.5798 74.5452 29.9841 74.0845 30.5012 73.7564C31.0215 73.4283 31.6264 73.2642 32.3158 73.2642C33.0052 73.2642 33.6084 73.4283 34.1254 73.7564C34.6458 74.0845 35.0502 74.5452 35.3385 75.1385C35.6302 75.7318 35.776 76.4261 35.776 77.2216C35.776 78.0104 35.6302 78.6998 35.3385 79.2898C35.0502 79.8797 34.6458 80.3388 34.1254 80.6669C33.6084 80.995 33.0052 81.1591 32.3158 81.1591ZM32.3158 80.1051C32.8395 80.1051 33.2703 79.9709 33.6084 79.7024C33.9465 79.4339 34.1967 79.081 34.3591 78.6435C34.5215 78.206 34.6027 77.732 34.6027 77.2216C34.6027 76.7112 34.5215 76.2356 34.3591 75.7947C34.1967 75.3539 33.9465 74.9976 33.6084 74.7259C33.2703 74.4541 32.8395 74.3182 32.3158 74.3182C31.7921 74.3182 31.3612 74.4541 31.0232 74.7259C30.6851 74.9976 30.4349 75.3539 30.2725 75.7947C30.1101 76.2356 30.0289 76.7112 30.0289 77.2216C30.0289 77.732 30.1101 78.206 30.2725 78.6435C30.4349 79.081 30.6851 79.4339 31.0232 79.7024C31.3612 79.9709 31.7921 80.1051 32.3158 80.1051ZM39.0374 81L36.7107 73.3636H37.9436L39.5942 79.2102H39.6737L41.3044 73.3636H42.5573L44.1681 79.1903H44.2476L45.8982 73.3636H47.1311L44.8044 81H43.651L41.9806 75.1335H41.8612L40.1908 81H39.0374ZM52.0828 73.3636V74.358H47.9664V73.3636H52.0828ZM49.1993 81V72.3097C49.1993 71.8722 49.3021 71.5076 49.5075 71.2159C49.713 70.9242 49.9798 70.7055 50.308 70.5597C50.6361 70.4138 50.9825 70.3409 51.347 70.3409C51.6354 70.3409 51.8707 70.3641 52.053 70.4105C52.2353 70.4569 52.3712 70.5 52.4607 70.5398L52.1226 71.554C52.0629 71.5341 51.9801 71.5092 51.874 71.4794C51.7713 71.4496 51.6354 71.4347 51.4664 71.4347C51.0786 71.4347 50.7985 71.5324 50.6262 71.728C50.4571 71.9235 50.3726 72.2102 50.3726 72.5881V81H49.1993ZM54.9005 70.8182V81H53.7272V70.8182H54.9005ZM59.2966 81.179C58.8127 81.179 58.3736 81.0878 57.9791 80.9055C57.5847 80.7199 57.2715 80.4531 57.0395 80.1051C56.8075 79.7538 56.6915 79.3295 56.6915 78.8324C56.6915 78.3949 56.7777 78.0402 56.95 77.7685C57.1224 77.4934 57.3527 77.2779 57.6411 77.1222C57.9294 76.9664 58.2476 76.8504 58.5956 76.7741C58.9469 76.6946 59.2999 76.6316 59.6546 76.5852C60.1186 76.5256 60.4948 76.4808 60.7831 76.451C61.0748 76.4179 61.2869 76.3632 61.4195 76.2869C61.5554 76.2107 61.6233 76.0781 61.6233 75.8892V75.8494C61.6233 75.3589 61.4891 74.9777 61.2206 74.706C60.9555 74.4342 60.5528 74.2983 60.0125 74.2983C59.4524 74.2983 59.0132 74.4209 58.695 74.6662C58.3769 74.9115 58.1531 75.1733 58.0239 75.4517L56.9102 75.054C57.1091 74.59 57.3743 74.2287 57.7057 73.9702C58.0405 73.7083 58.405 73.526 58.7994 73.4233C59.1972 73.3172 59.5883 73.2642 59.9727 73.2642C60.218 73.2642 60.4997 73.294 60.8179 73.3537C61.1394 73.41 61.4493 73.5277 61.7476 73.7067C62.0492 73.8857 62.2994 74.1558 62.4983 74.517C62.6972 74.8783 62.7966 75.3622 62.7966 75.9688V81H61.6233V79.9659H61.5637C61.4841 80.1316 61.3515 80.3089 61.1659 80.4979C60.9803 80.6868 60.7334 80.8475 60.4252 80.9801C60.1169 81.1127 59.7407 81.179 59.2966 81.179ZM59.4756 80.125C59.9396 80.125 60.3307 80.0339 60.6489 79.8516C60.9704 79.6693 61.2123 79.4339 61.3747 79.1456C61.5405 78.8572 61.6233 78.554 61.6233 78.2358V77.1619C61.5736 77.2216 61.4642 77.2763 61.2952 77.326C61.1295 77.3724 60.9372 77.4138 60.7185 77.4503C60.503 77.4834 60.2926 77.5133 60.0871 77.5398C59.8849 77.563 59.7209 77.5829 59.5949 77.5994C59.29 77.6392 59.0049 77.7038 58.7398 77.7933C58.478 77.8795 58.2658 78.0104 58.1034 78.1861C57.9443 78.3584 57.8648 78.5937 57.8648 78.892C57.8648 79.2997 58.0156 79.608 58.3172 79.8168C58.6221 80.0223 59.0083 80.125 59.4756 80.125ZM66.0319 78.2159L66.012 76.7642H66.2506L69.5915 73.3636H71.0432L67.4836 76.9631H67.3841L66.0319 78.2159ZM64.9381 81V70.8182H66.1114V81H64.9381ZM69.7904 81L66.8074 77.2216L67.6427 76.4062L71.2819 81H69.7904ZM75.4406 81.1591C74.7048 81.1591 74.0701 80.9967 73.5365 80.6719C73.0062 80.3438 72.5969 79.8864 72.3085 79.2997C72.0235 78.7098 71.8809 78.0237 71.8809 77.2415C71.8809 76.4593 72.0235 75.7699 72.3085 75.1733C72.5969 74.5734 72.9979 74.1061 73.5116 73.7713C74.0287 73.4332 74.6319 73.2642 75.3213 73.2642C75.719 73.2642 76.1118 73.3305 76.4996 73.4631C76.8873 73.5956 77.2403 73.8111 77.5585 74.1094C77.8767 74.4044 78.1302 74.7955 78.3192 75.2827C78.5081 75.7699 78.6025 76.3698 78.6025 77.0824V77.5795H72.7162V76.5653H77.4094C77.4094 76.1345 77.3232 75.75 77.1508 75.4119C76.9818 75.0739 76.7398 74.8071 76.425 74.6115C76.1134 74.416 75.7455 74.3182 75.3213 74.3182C74.854 74.3182 74.4496 74.4342 74.1082 74.6662C73.7702 74.8949 73.51 75.1932 73.3277 75.5611C73.1454 75.929 73.0542 76.3234 73.0542 76.7443V77.4205C73.0542 77.9972 73.1537 78.486 73.3525 78.8871C73.5547 79.2848 73.8348 79.5881 74.1927 79.7969C74.5507 80.0024 74.9666 80.1051 75.4406 80.1051C75.7488 80.1051 76.0273 80.062 76.2758 79.9759C76.5277 79.8864 76.7448 79.7538 76.9271 79.5781C77.1094 79.3991 77.2503 79.1771 77.3497 78.9119L78.4832 79.2301C78.3639 79.6146 78.1634 79.9527 77.8817 80.2443C77.5999 80.5327 77.2519 80.758 76.8376 80.9205C76.4233 81.0795 75.9577 81.1591 75.4406 81.1591ZM84.4839 81V70.8182H87.9243C88.723 70.8182 89.376 70.9624 89.8831 71.2507C90.3935 71.5357 90.7713 71.9219 91.0166 72.4091C91.2619 72.8963 91.3845 73.4399 91.3845 74.0398C91.3845 74.6397 91.2619 75.1849 91.0166 75.6754C90.7747 76.166 90.4001 76.5571 89.893 76.8487C89.3859 77.1371 88.7363 77.2812 87.9442 77.2812H85.4782V76.1875H87.9044C88.4513 76.1875 88.8904 76.093 89.2219 75.9041C89.5533 75.7152 89.7936 75.46 89.9427 75.1385C90.0952 74.8137 90.1714 74.4474 90.1714 74.0398C90.1714 73.6321 90.0952 73.2675 89.9427 72.946C89.7936 72.6245 89.5516 72.3726 89.2169 72.1903C88.8821 72.0047 88.438 71.9119 87.8845 71.9119H85.7169V81H84.4839ZM95.4587 81.179C94.9748 81.179 94.5357 81.0878 94.1412 80.9055C93.7468 80.7199 93.4336 80.4531 93.2016 80.1051C92.9696 79.7538 92.8536 79.3295 92.8536 78.8324C92.8536 78.3949 92.9398 78.0402 93.1121 77.7685C93.2845 77.4934 93.5148 77.2779 93.8032 77.1222C94.0915 76.9664 94.4097 76.8504 94.7577 76.7741C95.109 76.6946 95.462 76.6316 95.8167 76.5852C96.2807 76.5256 96.6569 76.4808 96.9452 76.451C97.2369 76.4179 97.449 76.3632 97.5816 76.2869C97.7175 76.2107 97.7854 76.0781 97.7854 75.8892V75.8494C97.7854 75.3589 97.6512 74.9777 97.3827 74.706C97.1176 74.4342 96.7149 74.2983 96.1746 74.2983C95.6145 74.2983 95.1753 74.4209 94.8572 74.6662C94.539 74.9115 94.3153 75.1733 94.186 75.4517L93.0724 75.054C93.2712 74.59 93.5364 74.2287 93.8678 73.9702C94.2026 73.7083 94.5671 73.526 94.9616 73.4233C95.3593 73.3172 95.7504 73.2642 96.1349 73.2642C96.3801 73.2642 96.6618 73.294 96.98 73.3537C97.3015 73.41 97.6114 73.5277 97.9097 73.7067C98.2113 73.8857 98.4616 74.1558 98.6604 74.517C98.8593 74.8783 98.9587 75.3622 98.9587 75.9688V81H97.7854V79.9659H97.7258C97.6462 80.1316 97.5136 80.3089 97.328 80.4979C97.1424 80.6868 96.8955 80.8475 96.5873 80.9801C96.279 81.1127 95.9028 81.179 95.4587 81.179ZM95.6377 80.125C96.1017 80.125 96.4928 80.0339 96.811 79.8516C97.1325 79.6693 97.3744 79.4339 97.5368 79.1456C97.7026 78.8572 97.7854 78.554 97.7854 78.2358V77.1619C97.7357 77.2216 97.6263 77.2763 97.4573 77.326C97.2916 77.3724 97.0993 77.4138 96.8806 77.4503C96.6652 77.4834 96.4547 77.5133 96.2492 77.5398C96.047 77.563 95.883 77.5829 95.757 77.5994C95.4521 77.6392 95.1671 77.7038 94.9019 77.7933C94.6401 77.8795 94.4279 78.0104 94.2655 78.1861C94.1064 78.3584 94.0269 78.5937 94.0269 78.892C94.0269 79.2997 94.1777 79.608 94.4793 79.8168C94.7842 80.0223 95.1704 80.125 95.6377 80.125ZM104.421 73.3636V74.358H100.464V73.3636H104.421ZM101.617 71.5341H102.791V78.8125C102.791 79.1439 102.839 79.3925 102.935 79.5582C103.034 79.7206 103.16 79.83 103.313 79.8864C103.468 79.9394 103.632 79.9659 103.805 79.9659C103.934 79.9659 104.04 79.9593 104.123 79.946C104.206 79.9295 104.272 79.9162 104.322 79.9062L104.56 80.9602C104.481 80.9901 104.37 81.0199 104.227 81.0497C104.085 81.0829 103.904 81.0994 103.685 81.0994C103.354 81.0994 103.029 81.0282 102.711 80.8857C102.396 80.7431 102.134 80.526 101.926 80.2344C101.72 79.9427 101.617 79.5748 101.617 79.1307V71.5341ZM109.507 73.3636V74.358H105.55V73.3636H109.507ZM106.703 71.5341H107.877V78.8125C107.877 79.1439 107.925 79.3925 108.021 79.5582C108.12 79.7206 108.246 79.83 108.399 79.8864C108.554 79.9394 108.718 79.9659 108.891 79.9659C109.02 79.9659 109.126 79.9593 109.209 79.946C109.292 79.9295 109.358 79.9162 109.408 79.9062L109.646 80.9602C109.567 80.9901 109.456 81.0199 109.313 81.0497C109.171 81.0829 108.99 81.0994 108.771 81.0994C108.44 81.0994 108.115 81.0282 107.797 80.8857C107.482 80.7431 107.22 80.526 107.011 80.2344C106.806 79.9427 106.703 79.5748 106.703 79.1307V71.5341ZM114.392 81.1591C113.656 81.1591 113.021 80.9967 112.488 80.6719C111.957 80.3438 111.548 79.8864 111.26 79.2997C110.975 78.7098 110.832 78.0237 110.832 77.2415C110.832 76.4593 110.975 75.7699 111.26 75.1733C111.548 74.5734 111.949 74.1061 112.463 73.7713C112.98 73.4332 113.583 73.2642 114.272 73.2642C114.67 73.2642 115.063 73.3305 115.451 73.4631C115.839 73.5956 116.191 73.8111 116.51 74.1094C116.828 74.4044 117.081 74.7955 117.27 75.2827C117.459 75.7699 117.554 76.3698 117.554 77.0824V77.5795H111.667V76.5653H116.361C116.361 76.1345 116.274 75.75 116.102 75.4119C115.933 75.0739 115.691 74.8071 115.376 74.6115C115.065 74.416 114.697 74.3182 114.272 74.3182C113.805 74.3182 113.401 74.4342 113.059 74.6662C112.721 74.8949 112.461 75.1932 112.279 75.5611C112.097 75.929 112.005 76.3234 112.005 76.7443V77.4205C112.005 77.9972 112.105 78.486 112.304 78.8871C112.506 79.2848 112.786 79.5881 113.144 79.7969C113.502 80.0024 113.918 80.1051 114.392 80.1051C114.7 80.1051 114.978 80.062 115.227 79.9759C115.479 79.8864 115.696 79.7538 115.878 79.5781C116.061 79.3991 116.201 79.1771 116.301 78.9119L117.434 79.2301C117.315 79.6146 117.115 79.9527 116.833 80.2443C116.551 80.5327 116.203 80.758 115.789 80.9205C115.374 81.0795 114.909 81.1591 114.392 81.1591ZM119.339 81V73.3636H120.472V74.517H120.552C120.691 74.1392 120.943 73.8326 121.307 73.5973C121.672 73.362 122.083 73.2443 122.54 73.2443C122.626 73.2443 122.734 73.246 122.863 73.2493C122.993 73.2526 123.09 73.2576 123.157 73.2642V74.4574C123.117 74.4474 123.026 74.4325 122.883 74.4126C122.744 74.3894 122.597 74.3778 122.441 74.3778C122.07 74.3778 121.738 74.4557 121.446 74.6115C121.158 74.764 120.929 74.9761 120.76 75.2479C120.595 75.5163 120.512 75.8229 120.512 76.1676V81H119.339ZM125.721 76.4062V81H124.547V73.3636H125.681V74.5568H125.78C125.959 74.169 126.231 73.8575 126.596 73.6222C126.96 73.3835 127.431 73.2642 128.008 73.2642C128.525 73.2642 128.977 73.3703 129.365 73.5824C129.753 73.7912 130.054 74.1094 130.27 74.5369C130.485 74.9612 130.593 75.4981 130.593 76.1477V81H129.42V76.2273C129.42 75.6274 129.264 75.16 128.952 74.8253C128.641 74.4872 128.213 74.3182 127.67 74.3182C127.295 74.3182 126.96 74.3994 126.665 74.5618C126.374 74.7242 126.143 74.9612 125.974 75.2727C125.805 75.5843 125.721 75.9621 125.721 76.4062ZM138.146 75.0739L137.092 75.3722C137.026 75.1965 136.928 75.0258 136.799 74.8601C136.673 74.6911 136.5 74.5518 136.282 74.4425C136.063 74.3331 135.783 74.2784 135.441 74.2784C134.974 74.2784 134.585 74.3861 134.273 74.6016C133.965 74.8137 133.811 75.0838 133.811 75.4119C133.811 75.7036 133.917 75.9339 134.129 76.103C134.341 76.272 134.673 76.4129 135.123 76.5256L136.257 76.804C136.94 76.9697 137.448 77.2232 137.783 77.5646C138.118 77.9027 138.285 78.3385 138.285 78.8722C138.285 79.3097 138.159 79.7008 137.907 80.0455C137.659 80.3902 137.311 80.6619 136.863 80.8608C136.416 81.0597 135.896 81.1591 135.302 81.1591C134.523 81.1591 133.879 80.9901 133.368 80.652C132.858 80.3139 132.535 79.8201 132.399 79.1705L133.513 78.892C133.619 79.303 133.819 79.6113 134.114 79.8168C134.412 80.0223 134.802 80.125 135.282 80.125C135.829 80.125 136.263 80.009 136.585 79.777C136.91 79.5417 137.072 79.2599 137.072 78.9318C137.072 78.6667 136.979 78.4446 136.794 78.2656C136.608 78.0833 136.323 77.9474 135.939 77.858L134.666 77.5597C133.967 77.3939 133.453 77.1371 133.125 76.7891C132.8 76.4377 132.638 75.9986 132.638 75.4716C132.638 75.0407 132.758 74.6596 133 74.3281C133.246 73.9967 133.579 73.7365 134 73.5476C134.424 73.3587 134.905 73.2642 135.441 73.2642C136.197 73.2642 136.79 73.4299 137.221 73.7614C137.656 74.0928 137.964 74.5303 138.146 75.0739Z" fill="white"/>
</svg>
