<svg width="30" height="30" viewBox="0 0 30 30" fill="none" xmlns="http://www.w3.org/2000/svg">
<path d="M2.5 10.425V19.575C2.5 21.45 4.53749 22.625 6.16249 21.6875L10.125 19.4125L14.0875 17.125C14.3375 16.975 14.5375 16.8125 14.7 16.6125V13.4125C14.5375 13.2125 14.3375 13.05 14.0875 12.9L10.125 10.6125L6.16249 8.33752C4.53749 7.37502 2.5 8.55 2.5 10.425Z" stroke="#292D32" stroke-width="1.5" stroke-linecap="round" stroke-linejoin="round"/>
<path d="M14.7 10.425V19.575C14.7 21.45 16.7375 22.625 18.3625 21.6875L22.325 19.4125L26.2875 17.125C27.9125 16.1875 27.9125 13.85 26.2875 12.9L22.325 10.6125L18.3625 8.33752C16.7375 7.37502 14.7 8.55 14.7 10.425Z" stroke="#292D32" stroke-width="1.5" stroke-linecap="round" stroke-linejoin="round"/>
</svg>
