<svg width="30" height="30" viewBox="0 0 30 30" fill="none" xmlns="http://www.w3.org/2000/svg">
<path d="M27.5 10.425V19.575C27.5 21.45 25.4625 22.625 23.8375 21.6875L19.875 19.4125L15.9125 17.125C15.6625 16.975 15.4625 16.8125 15.3 16.6125V13.4125C15.4625 13.2125 15.6625 13.05 15.9125 12.9L19.875 10.6125L23.8375 8.33752C25.4625 7.37502 27.5 8.55 27.5 10.425Z" stroke="#292D32" stroke-width="1.5" stroke-linecap="round" stroke-linejoin="round"/>
<path d="M15.3 10.425V19.575C15.3 21.45 13.2625 22.625 11.6375 21.6875L7.67502 19.4125L3.7125 17.125C2.0875 16.1875 2.0875 13.85 3.7125 12.9L7.67502 10.6125L11.6375 8.33752C13.2625 7.37502 15.3 8.55 15.3 10.425Z" stroke="#292D32" stroke-width="1.5" stroke-linecap="round" stroke-linejoin="round"/>
</svg>
